# xmcd
#
# Track frame offsets:
#	150
#	15048
#	31646
#	45660
#	56811
#	68594
#	79239
#	93844
#	107857
#	122435
#	137066
#	151323
#	172515
#	184903
#	197573
#	219596
#	244196
#	268913
#
# Disc length: 4012 seconds
#
# Revision: 0
# Processed by: cddbd v1.5.1PL0 Copyright (c) Steve Scherf et al.
# Submitted via: dBpowerAMP V4.0
#
DISCID=e40faa12
DTITLE=Dixie Aces - The Best of
DYEAR=2004
DGENRE=Country
TTITLE0=Bailando
TTITLE1=Southern streamline
TTITLE2=Almost Persuaded
TTITLE3=Travellin Man
TTITLE4=Back track
TTITLE5=Devil In Disguise
TTITLE6=Burn me
TTITLE7=I Love you so much it hurts
TTITLE8=Touch me
TTITLE9=You're gonna love me one day
TTITLE10=Sopul  mates
TTITLE11=She:ll have to go
TTITLE12=telephone blues
TTITLE13=Act naturally
TTITLE14=All you ever do is bring me down
TTITLE15=Turn the world around - Earrings
TTITLE16=before you accuse me  - Eric Clapton
TTITLE17=Terrain us apart  - Eric Clapton
EXTD=
EXTT0=
EXTT1=
EXTT2=
EXTT3=
EXTT4=
EXTT5=
EXTT6=
EXTT7=
EXTT8=
EXTT9=
EXTT10=
EXTT11=
EXTT12=
EXTT13=
EXTT14=
EXTT15=
EXTT16=
EXTT17=
PLAYORDER=
